<?xml version="1.0" encoding="UTF-8" standalone="no"?>
<svg
   xmlns:dc="http://purl.org/dc/elements/1.1/"
   xmlns:cc="http://creativecommons.org/ns#"
   xmlns:rdf="http://www.w3.org/1999/02/22-rdf-syntax-ns#"
   xmlns:svg="http://www.w3.org/2000/svg"
   xmlns="http://www.w3.org/2000/svg"
   version="1.1"
   id="svg3354"
   viewBox="0 0 260 260"
   height="260"
   width="260">
  <defs
     id="defs3356" />
  <metadata
     id="metadata3359">
    <rdf:RDF>
      <cc:Work
         rdf:about="">
        <dc:format>image/svg+xml</dc:format>
        <dc:type
           rdf:resource="http://purl.org/dc/dcmitype/StillImage" />
        <dc:title></dc:title>
      </cc:Work>
    </rdf:RDF>
  </metadata>
  <g
     transform="translate(0,-792.36216)"
     id="layer1">
    <rect
       y="792.36218"
       x="0"
       height="260"
       width="260"
       id="rect3368"
       style="fill:#24a9d1;fill-opacity:1;fill-rule:evenodd;stroke:none;stroke-width:0.46316326px;stroke-linecap:butt;stroke-linejoin:miter;stroke-opacity:1" />
    <path
       style="fill:#ffffff"
       id="path7"
       d="m 227.14953,870.55164 c -4.91039,-0.61374 -2.45561,1.84163 -3.68292,7.97987 -5.52512,27.00842 -27.62322,46.65147 -49.72051,59.54197 -2.45509,-30.69205 -1.22754,-65.06629 4.29606,-86.55056 4.90968,-17.80166 11.04889,-14.73241 3.68218,-18.41538 -7.36469,-3.683 -15.9583,1.22746 -22.71079,14.73179 -6.75195,13.50514 -36.8306,84.70965 -85.9368,133.20414 -25.16761,24.55203 -47.26598,12.27419 -52.17618,7.9782 -3.68323,-3.06856 -4.91088,1.84126 -0.61375,6.7522 20.25647,21.48493 49.72051,9.20783 60.15624,-1.22864 30.0773,-29.46274 64.45237,-93.303 78.57049,-120.31021 -1.22776,15.34644 -1.84153,40.51248 1.22779,70.59093 -15.34591,7.36586 -28.85008,11.6628 -34.98909,13.50384 -6.75225,1.84201 -11.04882,4.91119 -11.04882,7.98039 0,3.6832 4.29657,6.75224 11.04882,9.82134 11.66338,5.52558 46.65259,22.09777 55.24472,27.00848 7.36663,4.2968 11.04948,1.2277 12.89109,-3.68315 3.06891,-6.13919 -4.91097,-9.20787 -12.27734,-11.66256 -3.06856,-10.43494 -5.52358,-23.93957 -6.75107,-38.6713 17.80095,-11.04951 33.9113,-25.78134 49.19222,-42.50607 11.86988,-12.69682 20.80988,-32.78073 3.59766,-36.06528 z m -93.91703,98.21372 c 7.9798,-3.06898 17.80112,-7.36612 28.23645,-12.89017 1.22772,12.27647 3.06923,20.87043 4.91071,27.00934 -7.98014,-2.45495 -19.02936,-6.75301 -33.14716,-14.11917 z" />
  </g>
</svg>
