<?xml version="1.0" encoding="UTF-8" standalone="no"?>
<!-- Generator: Adobe Illustrator 15.1.0, SVG Export Plug-In . SVG Version: 6.00 Build 0)  -->

<svg
   xmlns:dc="http://purl.org/dc/elements/1.1/"
   xmlns:cc="http://creativecommons.org/ns#"
   xmlns:rdf="http://www.w3.org/1999/02/22-rdf-syntax-ns#"
   xmlns:svg="http://www.w3.org/2000/svg"
   xmlns="http://www.w3.org/2000/svg"
   xmlns:sodipodi="http://sodipodi.sourceforge.net/DTD/sodipodi-0.dtd"
   xmlns:inkscape="http://www.inkscape.org/namespaces/inkscape"
   version="1.1"
   id="Layer_1"
   x="0px"
   y="0px"
   width="717.158px"
   height="89.264px"
   viewBox="0 0 717.158 89.264"
   enable-background="new 0 0 717.158 89.264"
   xml:space="preserve"
   inkscape:version="0.91 r13725"
   sodipodi:docname="AlbertaLogo.svg"><metadata
     id="metadata45"><rdf:RDF><cc:Work
         rdf:about=""><dc:format>image/svg+xml</dc:format><dc:type
           rdf:resource="http://purl.org/dc/dcmitype/StillImage" /><dc:title></dc:title></cc:Work></rdf:RDF></metadata><defs
     id="defs43" /><sodipodi:namedview
     pagecolor="#ffffff"
     bordercolor="#666666"
     borderopacity="1"
     objecttolerance="10"
     gridtolerance="10"
     guidetolerance="10"
     inkscape:pageopacity="0"
     inkscape:pageshadow="2"
     inkscape:window-width="1680"
     inkscape:window-height="987"
     id="namedview41"
     showgrid="false"
     inkscape:zoom="0.40576831"
     inkscape:cx="358.57901"
     inkscape:cy="44.632"
     inkscape:window-x="-4"
     inkscape:window-y="-4"
     inkscape:window-maximized="1"
     inkscape:current-layer="Layer_1" /><path
     fill="#FFFFFF"
     d="M291.251,45.859V74.93h0.989c6.328-3.757,10.679-10.876,10.679-16.811c0-4.943-2.769-4.747-2.571-5.536  c0.988-2.177,7.119-0.99,7.515,6.327c0.396,6.327-2.77,12.263-8.702,16.218h20.963V45.858L291.251,45.859L291.251,45.859z"
     id="path3"
     style="fill:#ffffff" /><g
     id="g5"
     style="fill:#ffffff"><path
       fill="#FFFFFF"
       d="M117.215,85.215c-3.164-0.396-7.12-4.747-8.504-11.669c-2.175-12.459-0.989-25.117,2.769-43.51   c0.593-3.361,3.165-9.295-4.351-10.681c-2.571-0.396-1.187,0.989-1.78,4.153C102.58,37.353,91.308,47.24,80.035,53.965   c-1.187-15.624-0.593-33.226,2.176-44.104c2.571-9.098,5.537-7.516,1.78-9.295c-3.758-1.778-8.109,0.595-11.668,7.517   c-3.559,6.923-18.59,42.915-43.707,67.637C15.761,88.18,4.488,82.049,1.917,79.874c-1.78-1.583-2.571,0.987-0.396,3.36   c10.284,10.877,25.314,4.746,30.654-0.593c15.426-15.03,32.83-47.662,40.147-61.31c-0.593,7.91-0.989,20.567,0.593,35.994   c-7.911,3.758-14.635,5.934-17.799,6.922c-3.362,0.987-5.538,2.569-5.538,4.152c0,1.78,2.175,3.361,5.538,4.944   c5.933,2.77,23.732,11.271,28.083,13.843c3.758,2.177,5.538,0.595,6.526-1.778c1.583-3.164-2.571-4.746-6.329-5.934   c-1.583-5.34-2.769-12.262-3.362-19.776c9.098-5.538,17.799-13.054,23.139-22.149c-1.187,7.909-4.747,34.017,3.758,45.289   c1.78,2.57,5.933,4.943,9.69,4.745c1.78-0.396,2.769-1.581,2.571-1.778C119.39,84.819,118.402,85.215,117.215,85.215z M59.27,69.59   c4.153-1.581,9.097-3.758,14.438-6.525c0.593,6.328,1.582,10.681,2.571,13.845C72.125,75.524,66.586,73.349,59.27,69.59z"
       id="path7"
       style="fill:#ffffff" /><path
       fill="#FFFFFF"
       d="M291.845,74.536c-2.769,1.582-5.538,2.569-9.098,2.569c-11.866,0-15.03-9.295-15.624-13.844   c-0.396-3.164,0.396-7.516-4.945-6.922c-3.757,0.396-6.921,7.515-11.668,13.447c-4.153,5.341-5.933,4.747-4.944,0.396   c1.187-5.538,5.933-18.789,11.273-19.776c2.571-0.396,3.362,3.757,4.351,1.187c1.186-2.769,0-8.504-5.34-8.504   c-3.757,0-8.504,4.153-12.262,8.703c-3.362,4.15-19.975,28.873-26.896,23.532c-3.165-2.569-3.165-12.459-0.989-24.325   c8.504-3.163,15.426-2.175,19.183-0.396c1.78,0.988,2.176,0.988,1.187-1.187c-1.187-3.165-7.911-8.108-18.393-5.537   c-0.396,0-0.593,0-0.593,0.396c0.989-3.758,1.78-7.909,2.769-11.668c0.989-3.362,3.758-9.69-3.757-10.68   c-2.571-0.396-1.187,0.987-2.176,4.151c-1.582,5.935-3.164,13.845-4.747,21.358c-6.328,3.362-11.866,9.295-16.019,17.206   c0.593-3.361,1.78-7.516,1.78-10.284c0-2.77-1.78-3.361-2.571-3.758c-1.582-0.396-3.757,0.396-5.537,3.164   c-4.747,6.526-10.284,16.613-19.184,20.964c-6.329,3.164-9.098,0-9.295-4.746c1.187-0.396,2.571-0.594,3.362-1.187   c11.668-4.945,15.426-12.855,12.459-17.604c-2.769-4.351-10.679-3.165-16.81,3.361c-3.164,3.164-5.339,8.702-5.538,13.845   c-2.571,0.594-5.537,0.988-9.098,1.582c5.538-8.897,5.143-20.766-2.768-22.743c-9.098-2.176-13.844,6.525-15.624,14.041   c0.593-7.516,1.78-16.217,3.362-24.721c0.593-3.362,3.164-9.69-4.351-10.68c-2.571-0.396-2.176,0.594-1.78,4.152   c0.396,4.352-4.747,31.05-2.176,42.521c-3.164,0.989-4.746,3.361-0.396,6.329c2.769,1.779,9.295,2.569,15.624-0.989   c2.176-1.187,4.351-2.77,5.934-4.746c3.758-0.594,7.91-1.187,11.668-1.779c0.593,4.944,4.153,9.099,11.668,8.505   c10.877-0.988,20.568-14.438,24.326-20.964c-0.593,6.922-5.34,22.148,2.571,21.558c3.164-0.396,1.582-0.988,1.78-3.362   c0.594-9.097,8.504-16.811,16.02-21.557c-1.187,11.271-0.989,21.357,4.351,24.325c9.295,5.934,22.545-9.689,30.061-19.186   c-3.758,8.504-5.933,19.186-0.396,20.568c6.527,1.779,11.668-9.1,17.799-17.205c0.593,5.933,4.747,16.217,20.568,16.217   c7.119,0,13.449-2.176,17.798-5.341h-7.119v-0.396h0.2L291.845,74.536L291.845,74.536z M165.075,54.758   c3.758-3.362,5.538-3.362,6.329-2.57c0.989,2.175-3.362,9.295-12.262,13.447C160.131,62.076,161.911,57.724,165.075,54.758z    M127.896,77.106c-0.989,0.396-1.78,0-2.571,0c0.396-0.395,0.593-0.987,0.593-1.582c0-0.396,0-0.987,0-1.187   c1.582,0,4.153-0.396,7.12-0.594C131.652,75.524,129.674,76.711,127.896,77.106z M135.608,70.778   c-2.769,0.396-5.933,0.594-9.295,0.988c1.186-9.295,5.933-22.148,12.262-19.974C141.937,52.583,139.959,63.262,135.608,70.778z"
       id="path9"
       style="fill:#ffffff" /></g><g
     id="g11"
     style="fill:#ffffff"
     transform="translate(-128,0)"><path
       d="m 491.424,74.19 c -1.818,0.72 -3.652,1.078 -5.5,1.078 -2.348,0 -4.443,-0.435 -6.293,-1.298 -1.848,-0.865 -3.416,-2.031 -4.707,-3.498 -1.291,-1.467 -2.272,-3.153 -2.947,-5.062 -0.676,-1.905 -1.014,-3.887 -1.014,-5.938 0,-2.288 0.314,-4.466 0.947,-6.534 0.631,-2.067 1.568,-3.879 2.813,-5.434 1.246,-1.556 2.802,-2.794 4.664,-3.72 1.863,-0.925 4.041,-1.387 6.533,-1.387 1.701,0 3.31,0.198 4.818,0.595 1.512,0.396 2.858,1.021 4.049,1.869 1.188,0.854 2.186,1.932 2.992,3.234 0.807,1.306 1.354,2.882 1.647,4.729 l -4.18,0 c -0.205,-1.201 -0.588,-2.235 -1.145,-3.103 -0.56,-0.865 -1.248,-1.576 -2.068,-2.134 -0.82,-0.559 -1.752,-0.978 -2.793,-1.254 -1.041,-0.279 -2.15,-0.418 -3.322,-0.418 -1.906,0 -3.543,0.381 -4.906,1.144 -1.362,0.764 -2.479,1.769 -3.344,3.015 -0.865,1.247 -1.504,2.67 -1.914,4.27 -0.41,1.599 -0.615,3.232 -0.615,4.906 0,1.643 0.234,3.219 0.703,4.729 0.469,1.512 1.158,2.847 2.068,4.004 0.908,1.159 2.029,2.083 3.365,2.772 1.336,0.688 2.883,1.032 4.643,1.032 1.643,0 3.094,-0.265 4.355,-0.791 1.261,-0.527 2.324,-1.255 3.188,-2.18 0.865,-0.924 1.519,-2.009 1.959,-3.256 0.439,-1.246 0.629,-2.589 0.57,-4.025 l -10.031,0 0,-3.521 13.771,0 0,16.546 -2.642,0 -1.1,-3.916 c -1.22,1.648 -2.746,2.827 -4.564,3.546 z"
       id="path21"
       style="fill:#ffffff"
       inkscape:connector-curvature="0" /><path
       d="m 505.416,58.526 c 0.469,-1.451 1.172,-2.713 2.111,-3.783 0.938,-1.069 2.098,-1.914 3.477,-2.528 1.379,-0.616 2.963,-0.926 4.752,-0.926 1.818,0 3.41,0.31 4.773,0.926 1.362,0.614 2.516,1.459 3.453,2.528 0.938,1.07 1.643,2.332 2.11,3.783 0.468,1.452 0.705,3.015 0.705,4.688 0,1.672 -0.235,3.227 -0.705,4.663 -0.469,1.438 -1.172,2.69 -2.11,3.763 -0.938,1.071 -2.091,1.907 -3.453,2.508 -1.363,0.602 -2.955,0.902 -4.773,0.902 -1.789,0 -3.373,-0.303 -4.752,-0.902 -1.379,-0.599 -2.537,-1.437 -3.477,-2.508 -0.939,-1.07 -1.646,-2.324 -2.111,-3.763 -0.471,-1.438 -0.705,-2.991 -0.705,-4.663 0,-1.674 0.234,-3.236 0.705,-4.688 z m 3.805,8.36 c 0.367,1.07 0.873,1.965 1.521,2.684 0.645,0.721 1.399,1.271 2.266,1.65 0.867,0.38 1.783,0.57 2.75,0.57 0.97,0 1.886,-0.189 2.75,-0.57 0.865,-0.381 1.621,-0.932 2.267,-1.65 0.646,-0.718 1.151,-1.611 1.52,-2.684 0.367,-1.07 0.551,-2.295 0.551,-3.674 0,-1.38 -0.184,-2.604 -0.551,-3.676 -0.367,-1.069 -0.873,-1.973 -1.52,-2.706 -0.646,-0.731 -1.398,-1.29 -2.267,-1.672 -0.864,-0.382 -1.78,-0.57 -2.75,-0.57 -0.967,0 -1.885,0.188 -2.75,0.57 -0.864,0.382 -1.621,0.938 -2.266,1.672 -0.646,0.733 -1.152,1.637 -1.521,2.706 -0.367,1.07 -0.549,2.296 -0.549,3.676 0,1.379 0.182,2.604 0.549,3.674 z"
       id="path23"
       style="fill:#ffffff"
       inkscape:connector-curvature="0" /><path
       d="m 538.107,74.564 -8.447,-22.748 4.18,0 6.381,18.965 0.088,0 6.203,-18.965 3.916,0 -8.313,22.748 -4.008,0 0,0 z"
       id="path25"
       style="fill:#ffffff"
       inkscape:connector-curvature="0" /><path
       d="m 570.623,73.112 c -1.701,1.291 -3.844,1.938 -6.424,1.938 -1.82,0 -3.396,-0.294 -4.73,-0.882 -1.336,-0.586 -2.457,-1.406 -3.365,-2.464 -0.909,-1.057 -1.592,-2.315 -2.047,-3.782 -0.455,-1.468 -0.711,-3.065 -0.77,-4.798 0,-1.729 0.264,-3.313 0.791,-4.752 0.527,-1.438 1.27,-2.685 2.223,-3.738 0.953,-1.058 2.082,-1.877 3.389,-2.466 1.306,-0.586 2.734,-0.88 4.289,-0.88 2.023,0 3.703,0.418 5.039,1.254 1.334,0.838 2.404,1.899 3.211,3.189 0.808,1.291 1.363,2.699 1.673,4.225 0.309,1.525 0.434,2.979 0.375,4.355 l -17.027,0 c -0.029,0.997 0.088,1.943 0.353,2.838 0.266,0.896 0.688,1.688 1.274,2.376 0.588,0.689 1.336,1.239 2.244,1.65 0.91,0.411 1.979,0.614 3.213,0.614 1.584,0 2.881,-0.365 3.896,-1.101 1.012,-0.731 1.68,-1.848 2.002,-3.344 l 3.694,0 c -0.502,2.556 -1.602,4.479 -3.303,5.768 z m -0.902,-14.608 c -0.338,-0.792 -0.793,-1.477 -1.362,-2.048 -0.572,-0.57 -1.246,-1.025 -2.023,-1.362 -0.777,-0.337 -1.637,-0.506 -2.574,-0.506 -0.969,0 -1.842,0.169 -2.616,0.506 -0.777,0.337 -1.445,0.799 -2.005,1.386 -0.557,0.587 -0.995,1.271 -1.317,2.046 -0.322,0.777 -0.514,1.606 -0.572,2.486 l 13.068,0 c -0.064,-0.88 -0.263,-1.716 -0.599,-2.508 z"
       id="path27"
       style="fill:#ffffff"
       inkscape:connector-curvature="0" /><path
       d="m 582.195,51.816 0,4.796 0.088,0 c 0.908,-1.848 2.022,-3.212 3.344,-4.092 1.322,-0.88 2.992,-1.29 5.018,-1.231 l 0,3.96 c -1.495,0 -2.771,0.206 -3.827,0.616 -1.058,0.41 -1.906,1.012 -2.554,1.804 -0.645,0.793 -1.114,1.755 -1.408,2.884 -0.293,1.129 -0.438,2.427 -0.438,3.894 l 0,10.12 -3.74,0 0,-22.75 3.517,-10e-4 0,0 z"
       id="path29"
       style="fill:#ffffff"
       inkscape:connector-curvature="0" /><path
       d="m 598.43,51.816 0,3.608 0.088,0 c 1.558,-2.757 4.021,-4.138 7.396,-4.138 1.494,0 2.742,0.206 3.738,0.615 0.995,0.411 1.805,0.983 2.42,1.717 0.614,0.733 1.049,1.605 1.299,2.617 0.248,1.013 0.375,2.135 0.375,3.366 l 0,14.96 -3.74,0 0,-15.399 c 0,-1.406 -0.412,-2.521 -1.231,-3.345 -0.82,-0.819 -1.951,-1.229 -3.39,-1.229 -1.145,0 -2.133,0.176 -2.969,0.526 -0.836,0.354 -1.533,0.853 -2.092,1.495 -0.558,0.646 -0.978,1.401 -1.254,2.269 -0.277,0.865 -0.418,1.812 -0.418,2.838 l 0,12.848 -3.738,0 0,-22.748 3.516,0 0,0 z"
       id="path31"
       style="fill:#ffffff"
       inkscape:connector-curvature="0" /><path
       d="m 623.555,51.816 0,3.345 0.088,0 c 1.701,-2.581 4.15,-3.872 7.351,-3.872 1.405,0 2.684,0.294 3.826,0.88 1.145,0.589 1.95,1.586 2.42,2.992 0.764,-1.23 1.768,-2.186 3.016,-2.858 1.246,-0.675 2.617,-1.014 4.113,-1.014 1.145,0 2.178,0.126 3.102,0.374 0.924,0.25 1.717,0.64 2.377,1.166 0.66,0.527 1.172,1.21 1.539,2.046 0.367,0.837 0.552,1.843 0.552,3.016 l 0,16.676 -3.74,0 0,-14.918 c 0,-0.704 -0.06,-1.363 -0.176,-1.979 -0.117,-0.614 -0.339,-1.149 -0.66,-1.604 -0.322,-0.454 -0.771,-0.813 -1.342,-1.078 -0.572,-0.264 -1.313,-0.396 -2.224,-0.396 -1.848,0 -3.299,0.526 -4.354,1.584 -1.058,1.056 -1.584,2.464 -1.584,4.224 l 0,14.168 -3.738,0 0,-14.918 c 0,-0.731 -0.066,-1.407 -0.199,-2.023 -0.131,-0.614 -0.359,-1.149 -0.682,-1.604 -0.322,-0.454 -0.756,-0.807 -1.299,-1.056 -0.543,-0.249 -1.238,-0.374 -2.091,-0.374 -1.086,0 -2.018,0.22 -2.795,0.658 -0.774,0.439 -1.407,0.97 -1.891,1.584 -0.484,0.616 -0.836,1.256 -1.06,1.914 -0.219,0.66 -0.33,1.21 -0.33,1.649 l 0,14.168 -3.737,0 0,-22.748 3.52,0 -0.002,-0.002 0,0 z"
       id="path33"
       style="fill:#ffffff"
       inkscape:connector-curvature="0" /><path
       d="m 674.33,73.112 c -1.701,1.291 -3.844,1.938 -6.424,1.938 -1.82,0 -3.396,-0.294 -4.73,-0.882 -1.336,-0.586 -2.457,-1.406 -3.365,-2.464 -0.909,-1.057 -1.592,-2.315 -2.047,-3.782 -0.455,-1.468 -0.711,-3.065 -0.77,-4.798 0,-1.729 0.264,-3.313 0.791,-4.752 0.527,-1.438 1.27,-2.685 2.223,-3.738 0.953,-1.058 2.082,-1.877 3.389,-2.466 1.306,-0.586 2.734,-0.88 4.289,-0.88 2.023,0 3.703,0.418 5.039,1.254 1.334,0.838 2.404,1.899 3.211,3.189 0.808,1.291 1.363,2.699 1.673,4.225 0.309,1.525 0.434,2.979 0.375,4.355 l -17.027,0 c -0.029,0.997 0.088,1.943 0.353,2.838 0.264,0.896 0.688,1.688 1.274,2.376 0.588,0.689 1.336,1.239 2.244,1.65 0.908,0.411 1.979,0.614 3.213,0.614 1.584,0 2.881,-0.365 3.896,-1.101 1.012,-0.731 1.68,-1.848 2.002,-3.344 l 3.694,0 c -0.502,2.556 -1.602,4.479 -3.303,5.768 z m -0.902,-14.608 c -0.338,-0.792 -0.793,-1.477 -1.363,-2.048 -0.571,-0.57 -1.247,-1.025 -2.022,-1.362 -0.777,-0.337 -1.637,-0.506 -2.574,-0.506 -0.969,0 -1.842,0.169 -2.616,0.506 -0.777,0.337 -1.445,0.799 -2.005,1.386 -0.557,0.587 -0.995,1.271 -1.317,2.046 -0.322,0.777 -0.515,1.606 -0.572,2.486 l 13.068,0 c -0.064,-0.88 -0.263,-1.716 -0.599,-2.508 z"
       id="path35"
       style="fill:#ffffff"
       inkscape:connector-curvature="0" /><path
       d="m 686.033,51.816 0,3.608 0.088,0 c 1.555,-2.757 4.018,-4.138 7.393,-4.138 1.494,0 2.742,0.206 3.738,0.615 0.998,0.411 1.805,0.983 2.42,1.717 0.617,0.733 1.049,1.605 1.299,2.617 0.248,1.013 0.375,2.135 0.375,3.366 l 0,14.96 -3.74,0 0,-15.399 c 0,-1.406 -0.409,-2.521 -1.231,-3.345 -0.82,-0.819 -1.951,-1.229 -3.387,-1.229 -1.146,0 -2.136,0.176 -2.972,0.526 -0.836,0.354 -1.533,0.853 -2.092,1.495 -0.557,0.646 -0.975,1.401 -1.254,2.269 -0.277,0.865 -0.418,1.812 -0.418,2.838 l 0,12.848 -3.738,0 0,-22.748 3.519,0 0,0 z"
       id="path37"
       style="fill:#ffffff"
       inkscape:connector-curvature="0" /><path
       d="m 717.361,51.816 0,3.301 -4.531,0 0,14.123 c 0,0.439 0.037,0.792 0.109,1.058 0.071,0.264 0.211,0.469 0.418,0.614 0.205,0.146 0.489,0.241 0.856,0.286 0.367,0.044 0.845,0.065 1.431,0.065 l 1.717,0 0,3.3 -2.859,0 c -0.969,0 -1.797,-0.065 -2.486,-0.197 -0.688,-0.133 -1.246,-0.374 -1.672,-0.727 -0.426,-0.354 -0.74,-0.852 -0.945,-1.496 -0.204,-0.646 -0.309,-1.496 -0.309,-2.552 l 0,-14.476 -3.871,0 0,-3.301 3.871,0 0,-6.819 3.74,0 0,6.819 4.531,0.002 0,0 z"
       id="path39"
       style="fill:#ffffff"
       inkscape:connector-curvature="0" /></g></svg>